<?xml version="1.0" encoding="utf-8"?>
<!-- Generator: Adobe Illustrator 27.3.1, SVG Export Plug-In . SVG Version: 6.00 Build 0)  -->
<svg version="1.1" id="fbgcegda" xmlns="http://www.w3.org/2000/svg" xmlns:xlink="http://www.w3.org/1999/xlink" x="0px" y="0px"
	 viewBox="0 0 297 94" style="enable-background:new 0 0 297 94;" xml:space="preserve">
<style type="text/css">
	.st0{fill:url(#SVGID_1_);}
	.st1{display:none;}
	.st2{display:inline;fill:#15BDE5;}
	.st3{fill:url(#SVGID_00000014601864318074411800000007306521239804896686_);}
</style>
<g id="SvgjsG4727" transform="matrix(6.879944671538701,0,0,6.879944671538701,-0.000002050383291107029,-35.2253126503177)">
	<linearGradient id="SVGID_1_" gradientUnits="userSpaceOnUse" x1="13.1387" y1="11.7895" x2="216.447" y2="11.7895">
		<stop  offset="5.327789e-09" style="stop-color:#25A5D0"/>
		<stop  offset="1" style="stop-color:#52C8EF"/>
	</linearGradient>
	<path class="st0" d="M19.8,11.9c0.3,0.2,0.5,0.5,0.5,0.9v2.8c0,1.5-0.9,2.1-3.6,2.1c-2.7,0-3.6-0.7-3.6-2.1v-1.8h2.4v0.5
		c0,0.4,0.3,0.6,1.2,0.6c0.9,0,1.2-0.2,1.2-0.6v-0.8c0-0.2-0.1-0.4-0.4-0.5c-0.1,0-0.3,0-0.4,0c-0.2,0-0.9,0-1.1,0l0,0
		c-1.7-0.1-2.5-0.5-2.8-1.2c-0.1-0.3-0.1-0.6-0.1-0.9V8c0-1.5,0.8-2.2,3.4-2.2C19.4,5.7,20,6.5,20,8v2.5h-2.3V9.1
		c0-0.7-0.1-1.1-0.8-1.1c-0.7,0-0.8,0.4-0.8,1.1v1.4l0,0c0,0.1,0.1,1,1.1,1C17.7,11.5,19.1,11.4,19.8,11.9z M25.9,13.6h-3v0.7h2.5
		v1.2h-2.5v0.7h3v1.6h-5h0V12h5V13.6z M25.9,7.4h-3v0.7h2.5v1.2h-2.5v0.7h3v1.6h-5h0V5.7h5C25.9,5.7,25.9,7.4,25.9,7.4z M33.1,11.2
		c1,0.4,1.3,1,1.3,2l0.3,4.6h-3.2l-0.1-3.3c0-1.3-0.5-1.9-1.4-1.9c-0.2,0-0.4,0-0.6,0.1v5.1h-3.1V5.7h3.1v5c0.1,0.1,0.3,0.1,0.5,0.1
		c0.7,0,1.2-0.5,1.3-1.8l0.3-3.3h3l-0.4,4C34.2,10.8,33.6,10.8,33.1,11.2L33.1,11.2z M39.6,14.4c-0.1-0.1-0.1-0.1-0.2-0.1h-1.3v3
		h-2.8V5.7h3.8c3,0,3.6,0.7,3.6,2.2v2.9c0,1.3-1,1.5-1.7,1.7c0.7,0.5,1.6,0.7,1.6,2.3l0,3h-2.8l0-3C39.8,14.6,39.8,14.5,39.6,14.4z
		 M38.1,10.9c0.1,0,0.3,0.1,0.6,0.1c0.8,0,1.1-0.3,1.1-0.9V8.9c0-0.6-0.2-0.9-1.1-0.9c-0.2,0-0.4,0-0.6,0.1V10.9z"/>
</g>
<g class="st1">
	<path class="st2" d="M225.3,83.9c1.7-0.4,1.6-3.1-0.3-3.2c-8.9-0.1-17.8,1.5-26.7,1.5c-8.5,0-16.9-0.1-25.3-0.3
		c-17.3-0.4-34.6-0.1-51.9-1.3c-2.4-0.2-2.9,2.3-0.7,3.1c16.7,5.9,34.7,7.2,52.2,6.3c8.7-0.4,17.5-0.9,26.1-2.5
		C207.5,85.8,216.6,86,225.3,83.9L225.3,83.9z M251.3,81.7c-5-5.5-10.3-12.7-17.2-15.7c-2.1-0.9-3.1,1.8-2.1,3.3
		c2.2,3,5.2,5.3,7.8,7.9c1.9,1.9,3.7,3.9,5.6,5.9c-5.9,4.2-11.3,8.9-17.6,12.6c-0.9,0.5-1.3,1.6-0.8,2.5c0.5,0.9,1.6,1.3,2.5,0.8
		c7.6-3.4,14.2-8.6,21.1-13.1c0.2-0.1,0.3-0.2,0.5-0.3C252.2,84.5,252.3,82.8,251.3,81.7L251.3,81.7z"/>
</g>
<linearGradient id="SVGID_00000018226007846322957040000003705643696762965169_" gradientUnits="userSpaceOnUse" x1="83.6338" y1="45.9457" x2="2.2979" y2="45.9457">
	<stop  offset="5.327789e-09" style="stop-color:#25A5D0"/>
	<stop  offset="1" style="stop-color:#52C8EF"/>
</linearGradient>
<path style="fill:url(#SVGID_00000018226007846322957040000003705643696762965169_);" d="M13.8,86.1c-1.1,0-2.2-0.3-3.1-0.8h-0.3
	l-0.8-0.7l-5.3-4.3c-2.6-2.6-2.6-6.8,0-9.5l15.1-14.1c1.3-1.3,2.9-2,4.7-2c0.7,0,1.4,0.1,2.1,0.3c-4.2-6.1-6.1-13.4-5.4-20.8
	C21.5,26,25.5,18.4,32,13c5.6-4.7,12.8-7.3,20.1-7.3c9.4,0,18.3,4.2,24.3,11.4c11.1,13.4,9.2,33.3-4.2,44.4
	c-5.6,4.7-12.8,7.3-20.1,7.3c-6.4,0-12.6-2-17.9-5.6c0.8,2.3,0.2,5-1.6,6.8L18.5,84.2C17.2,85.4,15.6,86.1,13.8,86.1z M39.5,53.2
	c3.5,2.8,8,4.4,12.5,4.4c5.4,0,10.6-2.2,14.3-5.9c7.9-7.9,7.9-20.7,0-28.6c-3.8-3.8-8.9-5.9-14.3-5.9c-5.4,0-10.5,2.1-14.3,5.9
	c-7.4,7.4-8,19-1.4,27.1L39.5,53.2z"/>
<path class="st1" d="M235.1,79.1c-0.7,0-1.4-0.2-2-0.6H233l-3.5-3.5c-1.4-1.4-1.4-3.6,0-5l11.6-11.6c0.7-0.7,1.5-1,2.5-1
	c0.8,0,1.5,0.3,2.1,0.7l2.2-2.2c-3.9-4.9-5.7-11-5.1-17.2c0.6-6.4,3.6-12.1,8.6-16.2c4.3-3.6,9.7-5.5,15.3-5.5
	c7.2,0,13.9,3.2,18.5,8.7c8.4,10.2,7,25.3-3.2,33.7c-4.3,3.6-9.7,5.5-15.3,5.5c-5.4,0-10.7-1.9-15-5.2l-2.2,2.2
	c1.1,1.4,1,3.4-0.3,4.6l-11.6,11.6C236.9,78.8,236.1,79.1,235.1,79.1L235.1,79.1z M244.1,64.1l-0.6-0.6l-9,9l0.6,0.6L244.1,64.1z
	 M253.5,27.8c-6.8,6.8-7.4,17.6-1.2,25l2.7,2.7c3.3,2.6,7.4,4.1,11.6,4.1h0.1c4.9,0,9.7-2,13.1-5.5c7.3-7.3,7.3-19.1,0-26.3
	c-3.5-3.5-8.2-5.5-13.2-5.5C261.7,22.3,257,24.3,253.5,27.8z"/>
<path class="st1" d="M317.7,233L282,197.3c-2.7-2.7-7-2.7-9.6,0l-1.8,1.8l-12.3-12.3l1.6-1.6c24.6-29.7,20.5-73.8-9.2-98.4
	s-73.8-20.5-98.4,9.2s-20.5,73.8,9.2,98.4c25.9,21.5,63.4,21.5,89.2,0l1.6-1.6l12.3,12.3l-1.8,1.8c-2.7,2.7-2.7,7,0,9.6l35.7,35.7
	c2.7,2.7,7,2.7,9.6,0c0,0,0,0,0,0l9.6-9.6C320.3,239.9,320.3,235.6,317.7,233L317.7,233z M205.9,202c-16.3,0-31.9-6.4-43.4-18
	c-24-24-24-62.9-0.1-86.9s62.9-24,86.9-0.1c22.5,22.4,24.1,58.3,3.9,82.7l-8.6,8.6C233.7,197.2,220,202.1,205.9,202L205.9,202z
	 M303.2,245.1l-33.4-33.4l7.4-7.4l33.4,33.4L303.2,245.1z"/>
</svg>
