<svg xmlns:xlink="http://www.w3.org/1999/xlink" xmlns="http://www.w3.org/2000/svg" viewBox="0 0 250 102.3735840610696" preserveAspectRatio="xMidYMid meet" class="css-1bokhjq" id="agdabhac" width="495"  height="203" ><defs id="SvgjsDefs4726"><pattern id="symbol-foil0" patternUnits="userSpaceOnUse" width="700" height="700" x="0px" y="-150px" patternTransform="scale(0.07)"><image width="700" height="700" xlink:href="https://cdn.logojoy.com/app/editor/goldfoil8.jpg" x="0" y="0"></image></pattern></defs><g id="SvgjsG4727" featurekey="Ua4uQk-0" transform="matrix(6.879944671538701,0,0,6.879944671538701,-0.000002050383291107029,-35.2253126503177)" fill="url(&quot;#symbol-foil0&quot;)"><path d="M8.22 12.719999999999999 c0.34 0.24 0.56 0.6 0.56 1.14 l0 3.5 c0 1.86 -1.08 2.64 -4.38 2.64 c-3.36 0 -4.4 -0.82 -4.4 -2.64 l0 -2.18 l2.96 0 l0 0.6 c0 0.48 0.36 0.7 1.52 0.7 c1.14 0 1.52 -0.22 1.52 -0.7 l0 -0.98 c0 -0.3 -0.1 -0.5 -0.48 -0.62 c-0.16 -0.04 -0.32 -0.06 -0.5 -0.06 c-0.24 0.02 -1.16 0.02 -1.34 0.02 l0 0 c-2.1 -0.08 -3.12 -0.56 -3.5 -1.52 c-0.12 -0.32 -0.18 -0.68 -0.18 -1.1 l0 -3.66 c0 -1.8 1.04 -2.74 4.22 -2.74 c3.52 0 4.22 0.9 4.22 2.74 l0 3.02 l-2.88 0 l0 -1.6 c0 -0.88 -0.18 -1.3 -1.04 -1.3 c-0.8 0 -1.04 0.44 -1.04 1.3 l0 1.72 l0 0 c0 0.1 0.1 1.22 1.3 1.22 c0.88 0 2.56 -0.12 3.44 0.5 z M15.632499999999999 14.84 l-3.74 0 l0 0.88 l3.06 0 l0 1.44 l-3.06 0 l0 0.82 l3.74 0 l0 2.02 l-6.14 0 l-0.04 0 l0 -7.18 l6.18 0 l0 2.02 z M15.632499999999999 7.140000000000001 l-3.74 0 l0 0.88 l3.06 0 l0 1.44 l-3.06 0 l0 0.82 l3.74 0 l0 2.02 l-6.14 0 l-0.04 0 l0 -7.18 l6.18 0 l0 2.02 z M24.564999999999998 11.8 c1.2 0.44 1.66 1.24 1.66 2.52 l0.42 5.68 l-3.98 0 l-0.14 -4.06 c0 -1.64 -0.64 -2.34 -1.72 -2.34 c-0.3 0 -0.52 0.04 -0.72 0.16 l0 6.24 l-3.78 0 l0 -14.88 l3.78 0 l0 6.12 c0.16 0.1 0.38 0.16 0.62 0.16 c0.92 0 1.46 -0.6 1.66 -2.18 l0.42 -4.1 l3.7 0 l-0.46 4.86 c-0.14 1.4 -0.9 1.4 -1.46 1.82 z M32.5975 15.74 c-0.08 -0.1 -0.18 -0.14 -0.28 -0.14 l-1.58 0 l0 3.66 l-3.42 0 l0 -14.14 l4.62 0 c3.68 0 4.4 0.88 4.4 2.68 l0 3.56 c0 1.56 -1.2 1.82 -2.12 2.08 c0.92 0.56 2.02 0.9 2.02 2.88 l-0.06 3.68 l-3.42 0 l0.04 -3.72 c0 -0.22 -0.06 -0.42 -0.2 -0.54 z M30.737499999999997 11.5 c0.18 0.06 0.4 0.08 0.68 0.08 c0.98 0 1.3 -0.32 1.3 -1.08 l0 -1.48 c0 -0.76 -0.22 -1.12 -1.3 -1.12 c-0.28 0 -0.5 0.02 -0.68 0.08 l0 3.52 z" fill="#F7ED9C"></path></g></svg>